Coordinates
version=1
nRows=12
nColumns=34
inDegrees=yes

Units are S.I. units (second, meters, Newtons, ...)
If the header above contains a line with 'inDegrees', this indicates whether rotational values are in degrees (yes) or radians (no).

endheader
time	pelvis_tilt	pelvis_list	pelvis_rotation	pelvis_tx	pelvis_ty	pelvis_tz	hip_flexion_l	hip_adduction_l	hip_rotation_l	hip_flexion_r	hip_adduction_r	hip_rotation_r	knee_angle_l_beta	knee_angle_r_beta	knee_angle_l	knee_angle_r	ankle_angle_l	ankle_angle_r	subtalar_angle_l	subtalar_angle_r	mtp_angle_l	mtp_angle_r	lumbar_ext	lumbar_bend	lumbar_rota	shoulder_flexion_r	shoulder_adduction_r	shoulder_rotation_r	elbow_flexion_r	shoulder_flexion_l	shoulder_adduction_l	shoulder_rotation_l	elbow_flexion_l
      0.15000000	     -2.22132951	     -6.50187080	      5.64585322	      0.02670529	      0.84583510	     -0.30131954	     -9.84932706	    -12.44788841	    -11.29076941	     26.92205333	      6.36842053	    -11.60921633	      0.73134378	      0.39126841	    -41.90291187	    -22.41802851	    -26.29905369	     -7.41728457	     11.59391081	     -2.98695899	    -10.40762653	    -17.26695561	     -2.46873315	      9.04669541	     -1.99230994	    -12.84160550	     -1.00217400	    -10.26296609	     27.97111833	      6.42416304	     -1.46517896	      6.53989607	     52.64145278
      0.16000000	     -1.67843300	     -6.53819182	      5.36342966	      0.04148533	      0.84878042	     -0.29929779	     -8.46095188	    -12.73477672	    -10.53968629	     25.48079241	      6.97299596	    -10.80058665	      0.78714701	      0.39822336	    -45.10020125	    -22.81651802	    -26.85140932	     -6.74301535	     10.97023053	     -3.20754807	    -10.33919112	    -17.11499265	     -3.28230746	      8.97446480	     -1.40835250	    -12.15759785	     -1.05847600	    -10.03625713	     28.13189539	      5.95824192	     -1.40431359	      6.05223190	     51.57045807
      0.17000000	     -2.33489547	     -6.73325468	      5.65444057	      0.05558078	      0.85012223	     -0.29832355	     -5.09251606	    -12.90992307	     -8.70235184	     25.35731167	      7.28184539	    -10.75838083	      0.85464952	      0.40413699	    -48.96781074	    -23.15534410	    -26.02230370	     -6.01524249	      8.88291513	     -3.87665539	    -13.28455236	    -16.62742540	     -2.47356534	      8.97639307	     -1.52859011	    -11.61457019	     -1.27174742	     -9.22731225	     28.12978760	      5.48397445	     -1.31485976	      5.63617109	     49.83989324
      0.18000000	     -2.05778016	     -6.81786839	      5.85247860	      0.06965705	      0.85314892	     -0.29716616	     -2.96081746	    -13.01355467	     -7.32309254	     23.89342717	      7.67950488	    -10.65506021	      0.90960195	      0.39939651	    -52.11635255	    -22.88373455	    -25.05183756	     -5.21148065	      7.54820801	     -4.09908973	    -13.63975476	    -16.37096109	     -2.87637725	      8.94008840	     -1.35173374	    -10.96240888	     -1.40676474	     -8.80285964	     28.50002341	      5.20471688	     -1.28340163	      5.32758637	     48.20978366
      0.19000000	     -2.18082590	     -6.80469784	      6.18313301	      0.08332703	      0.85578424	     -0.29626481	     -0.20774556	    -12.85821430	     -5.68226040	     22.78685692	      7.84012485	    -10.71652278	      0.96337745	      0.39206220	    -55.19746223	    -22.46350947	    -23.48105071	     -4.32959577	      6.68065858	     -4.01249258	    -14.66729710	    -15.80688176	     -2.79790602	      8.75560835	     -1.34991271	    -10.32807267	     -1.52008809	     -8.51175024	     28.86180718	      4.91762810	     -1.33286369	      5.25048773	     46.46263397
      0.20000000	     -2.08163525	     -6.61657341	      6.36824815	      0.09690022	      0.85892588	     -0.29523259	      2.14881647	    -12.45575668	     -4.39488144	     21.28664135	      7.91848171	    -10.63779964	      1.00874305	      0.38045862	    -57.79671933	    -21.79867339	    -21.46378202	     -3.48147239	      5.75391870	     -3.89363267	    -15.01231958	    -15.39462553	     -3.04062158	      8.38749140	     -1.17271559	     -9.66614196	     -1.64682230	     -8.24732436	     29.44027968	      4.68123578	     -1.39842267	      4.98484997	     44.69773933
      0.21000000	     -2.03087904	     -6.31965482	      6.52726318	      0.11049608	      0.86212129	     -0.29432815	      4.45540948	    -11.87145541	     -3.30750908	     19.71820516	      7.87545330	    -10.53996539	      1.04628549	      0.36545599	    -59.94774301	    -20.93908591	    -19.23155415	     -2.66325664	      4.87832717	     -3.69364372	    -15.05622374	    -15.08399354	     -3.20662210	      7.92599077	     -1.01794219	     -9.03073776	     -1.75783329	     -8.04668848	     30.13009030	      4.41666450	     -1.47998335	      4.74626719	     42.92488328
      0.22000000	     -2.21024263	     -6.06608188	      6.79561985	      0.12377783	      0.86489635	     -0.29361810	      7.12007181	    -11.20661999	     -2.08504479	     18.38026625	      7.73556342	    -10.83067836	      1.08132373	      0.34847703	    -61.95528573	    -19.96626310	    -16.55147756	     -2.02877288	      4.41636571	     -2.98033215	    -17.76999323	    -13.12291235	     -3.12142422	      7.49236426	     -0.34867161	     -8.92527826	     -1.72231367	     -9.09328336	     31.52412816	      4.68367954	     -1.62693768	      5.83074425	     40.49117938
      0.23000000	     -2.27439584	     -5.68553607	      6.89022559	      0.13715128	      0.86794154	     -0.29270501	      9.40394862	    -10.44611609	     -1.30383800	     16.83866253	      7.56767806	    -10.87504231	      1.10417316	      0.33007770	    -63.26446206	    -18.91205885	    -14.25431224	     -1.45848649	      3.79532137	     -2.45214663	    -17.50539849	    -13.03467684	     -3.18997254	      6.91670692	     -0.16180721	     -8.31261476	     -1.86552479	     -8.91770542	     32.42863448	      4.39512811	     -1.81596148	      5.70705588	     38.76510354
      0.24000000	     -2.41850806	     -5.25386062	      6.86428396	      0.15052252	      0.87076474	     -0.29171569	     11.62635813	     -9.64056209	     -0.80860235	     15.36942863	      7.34420611	    -10.90047605	      1.11882166	      0.31143604	    -64.10375934	    -17.84397068	    -12.03013568	     -0.96044013	      3.27421597	     -1.80934241	    -17.39060413	    -12.89889335	     -3.17823828	      6.28056574	      0.21256984	     -7.81710829	     -1.99632664	     -8.98147907	     33.56762985	      4.14840869	     -2.01905916	      5.76728237	     36.98567440
      0.25000000	     -2.59214569	     -4.78267487	      6.70480947	      0.16388202	      0.87336342	     -0.29063428	     13.73772182	     -8.83263651	     -0.60072060	     13.92164748	      7.07748701	    -10.88435178	      1.12543027	      0.29236988	    -64.48240453	    -16.75156009	    -10.00004810	     -0.49160587	      2.97187369	     -0.91000586	    -17.68890569	    -12.60545866	     -3.14315529	      5.61434595	      0.97298632	     -7.56803935	     -2.08352415	     -9.59693504	     35.09899627	      4.11396876	     -2.26406576	      6.44373226	     35.00055188
      0.26000000	     -2.80064569	     -4.26463920	      6.39775403	      0.17730561	      0.87579395	     -0.28925386	     15.72658975	     -8.07260979	     -0.73106929	     12.48565975	      6.82831399	    -10.57496950	      1.12324835	      0.27179481	    -64.35739007	    -15.57269561	     -8.57170277	     -0.38223288	      2.46277708	     -0.58975683	    -17.59636105	    -12.63024685	     -3.09178843	      4.88666981	      1.28234462	     -6.89896102	     -2.22729689	     -9.50426370	     36.25557223	      3.50197666	     -2.62429324	      6.31731322	     33.81826577
